<svg xmlns="http://www.w3.org/2000/svg" width="291" height="300" fill="none" class="text-sm me-0 w-10 h-10 text-brand dark:text-brand-dark flex origin-center transition-all ease-in-out" viewBox="0 0 291 300">
  <path fill="#FF6376" d="M140.904 239.376c-12.074.307-21.229-.077-25.456 4.467-4.546 4.227-4.16 13.384-4.469 25.459.139 5.373.139 10.176.493 14.218.19 2.118.478 4.027.934 5.704l.016.056c.04.139.074.278.117.411.629 2.096 1.549 3.8 2.907 5.067 1.216 1.306 2.837 2.205 4.818 2.832.096.024.2.056.291.085.005.005.005.005.011.005.282.088.576.166.877.243q.015.001.035.011c1.397.338 2.946.573 4.632.744q.323.028.653.061c4.027.347 8.795.349 14.141.483 12.07-.31 21.224.08 25.456-4.464 4.544-4.232 4.155-13.387 4.464-25.456-.309-12.075.083-21.232-4.464-25.459-4.229-4.544-13.386-4.16-25.456-4.467"/>
  <path fill="#FCC" d="M21.216 128.398c-8.56.218-15.051-.059-18.048 3.162-3.222 3-2.95 9.494-3.168 18.048.218 8.56-.054 15.051 3.168 18.048 2.997 3.222 9.488 2.95 18.048 3.168 3.81-.098 7.213-.098 10.08-.349 1.5-.133 2.853-.339 4.042-.661l.04-.011q.15-.042.29-.085c1.489-.446 2.697-1.096 3.596-2.062.927-.861 1.562-2.01 2.008-3.413.016-.069.04-.141.06-.208q.002 0 .004-.008.09-.298.17-.621.002-.01.008-.024c.24-.99.408-2.088.528-3.286l.043-.461c.248-2.856.248-6.237.341-10.027-.218-8.554.059-15.048-3.163-18.048-3-3.221-9.49-2.944-18.047-3.162"/>
  <path fill="#FF939F" d="M81.06 184.171c-10.203.262-17.94-.069-21.513 3.771-3.84 3.576-3.514 11.312-3.773 21.512.259 10.203-.066 17.939 3.773 21.509 3.574 3.84 11.31 3.515 21.513 3.776 4.54-.117 8.6-.117 12.013-.416 1.792-.16 3.403-.402 4.821-.789l.048-.013c.115-.035.232-.064.347-.099 1.771-.533 3.211-1.309 4.28-2.459 1.107-1.026 1.864-2.397 2.395-4.069.021-.083.048-.168.072-.248q.006-.002.005-.008c.075-.237.139-.485.203-.741q.001-.01.01-.03c.286-1.178.486-2.488.627-3.914l.053-.55c.294-3.402.294-7.434.408-11.949-.261-10.2.07-17.936-3.77-21.512-3.576-3.84-11.315-3.509-21.513-3.771"/>
  <path fill="#FF356A" d="M260.591 151.87c-44.939 0-57.571 12.653-57.571 57.592h-4.544c0-44.939-12.64-57.581-57.581-57.581v-4.544c44.941 0 57.592-12.632 57.592-57.571h4.533c0 44.939 12.632 57.571 57.571 57.571zm25.461-27.712c-4.232-4.544-13.392-4.157-25.461-4.469-12.07-.304-21.23.082-25.462-4.462-4.544-4.232-4.146-13.381-4.458-25.461-.158-6.035-.136-11.339-.648-15.664-.51-4.336-1.542-7.68-3.814-9.797-4.242-4.544-13.392-4.158-25.461-4.46-12.067.302-21.229-.084-25.461 4.46-4.534 4.232-4.158 13.392-4.459 25.46-.312 12.07.072 21.23-4.472 25.462-4.232 4.544-13.371 4.147-25.451 4.462-2.032.05-3.981.082-5.834.122-15.758-1.114-28.734-7.493-28.734-30.045-.125-5.096-.104-9.587-.53-13.245-.44-3.648-1.315-6.483-3.232-8.264-3.574-3.846-11.318-3.512-21.51-3.774-10.205.262-17.946-.072-21.512 3.774-3.845 3.573-3.522 11.306-3.784 21.509.262 10.203-.061 17.936 3.784 21.512 3.566 3.835 11.307 3.512 21.512 3.771 22.552 0 28.931 12.986 30.035 28.754a655 655 0 0 1-.125 5.816c.146 5.368.146 10.171.501 14.216.187 2.115.469 4.022.928 5.699.008.021.008.032.019.064.042.136.074.269.114.405.627 2.096 1.555 3.806 2.91 5.067 1.218 1.301 2.834 2.208 4.824 2.835.093.029.189.05.293.082.291.094.581.166.875.251.021 0 .032 0 .04.011 1.397.333 2.941.573 4.629.738l.656.064c4.024.344 8.795.344 14.141.478 12.07.314 21.219-.072 25.451 4.472 4.544 4.232 4.16 13.37 4.472 25.45.301 12.078-.085 21.23 4.459 25.459 4.232 4.544 13.394 4.16 25.461 4.461 5.379-.136 10.173-.136 14.227-.49 2.104-.187 4.01-.478 5.701-.926.019-.01.029-.021.051-.021.146-.043.272-.075.408-.115 2.093-.626 3.802-1.554 5.074-2.909 1.302-1.219 2.2-2.845 2.835-4.813.021-.094.051-.198.083-.294v-.01c.093-.28.168-.571.24-.875 0-.021.01-.021.01-.04.344-1.397.574-2.941.75-4.629.01-.219.042-.438.064-.656.344-4.022.344-8.795.48-14.142.301-12.08-.086-21.218 4.458-25.45 4.232-4.544 13.382-4.158 25.462-4.472 12.069-.302 21.229.085 25.461-4.459 4.544-4.232 4.157-13.381 4.459-25.451-.302-12.08.085-21.24-4.459-25.461"/>
  <path fill="#FF6376" d="m112.405 49.848.016.056q.059.21.118.41c.632 2.1 1.549 3.8 2.909 5.07 1.213 1.307 2.835 2.205 4.816 2.83.096.026.2.055.291.087.005.006.005.006.01.006.283.088.576.162.878.24q.014.001.037.01c1.395.339 2.944.576 4.632.744l.651.062c4.026.349 8.797.349 14.141.482 12.069-.306 21.224.083 25.456-4.461 4.547-4.232 4.155-13.39 4.464-25.459-.307-12.074.083-21.229-4.461-25.456C162.131-.075 152.973.31 140.904 0c-12.075.31-21.229-.075-25.456 4.47-4.544 4.226-4.16 13.38-4.469 25.455.138 5.376.138 10.176.493 14.219.189 2.117.477 4.027.933 5.704"/>
</svg>
