<svg width="240" height="240" viewBox="0 0 240 240" fill="none" xmlns="http://www.w3.org/2000/svg">
  <defs>
    <linearGradient id="bgGradient" x1="20" y1="220" x2="220" y2="20" gradientUnits="userSpaceOnUse">
      <stop offset="0%" stop-color="#6366F1"/>
      <stop offset="100%" stop-color="#60A5FA"/>
    </linearGradient>
    <linearGradient id="dataGradient1" x1="40" y1="200" x2="200" y2="40" gradientUnits="userSpaceOnUse">
      <stop offset="0%" stop-color="#34D399"/>
      <stop offset="100%" stop-color="#10B981"/>
    </linearGradient>
    <linearGradient id="dataGradient2" x1="40" y1="200" x2="200" y2="40" gradientUnits="userSpaceOnUse">
      <stop offset="0%" stop-color="#22D3EE"/>
      <stop offset="100%" stop-color="#06B6D4"/>
    </linearGradient>
    <linearGradient id="dataGradient3" x1="40" y1="200" x2="200" y2="40" gradientUnits="userSpaceOnUse">
      <stop offset="0%" stop-color="#60A5FA"/>
      <stop offset="100%" stop-color="#3B82F6"/>
    </linearGradient>
    <linearGradient id="overlayGradient" x1="0" y1="0" x2="1" y2="1">
      <stop offset="0%" stop-color="#FFFFFF" stop-opacity="0.2"/>
      <stop offset="100%" stop-color="#FFFFFF" stop-opacity="0"/>
    </linearGradient>
  </defs>
  <g transform="skewY(-5)">
    <rect x="50" y="60" width="140" height="140" rx="12" fill="#6366F1" opacity="0.3"/>
    <rect x="30" y="40" width="160" height="160" rx="16" fill="url(#bgGradient)" stroke="#34D399" stroke-width="2" stroke-opacity="0.3"/>
  </g>
  <g transform="translate(10, 10)">
    <path d="M45 170 V 120 C 45 115 50 110 55 110 H 75 C 80 110 85 115 85 120 V 170 C 85 175 80 180 75 180 H 55 C 50 180 45 175 45 170 Z" fill="url(#dataGradient1)" opacity="0.8"/>
    <path d="M95 170 V 90 C 95 85 100 80 105 80 H 125 C 130 80 135 85 135 90 V 170 C 135 175 130 180 125 180 H 105 C 100 180 95 175 95 170 Z" fill="url(#dataGradient2)" opacity="0.9"/>
    <path d="M145 170 V 60 C 145 55 150 50 155 50 H 175 C 180 50 185 55 185 60 V 170 C 185 175 180 180 175 180 H 155 C 150 180 145 175 145 170 Z" fill="url(#dataGradient3)"/>
  </g>
  <g transform="translate(10, 10)" filter="drop-shadow(0px 2px 4px rgba(52, 211, 153, 0.4))">
    <polyline points="65 115, 115 85, 165 55" fill="none" stroke="#6EE7B7" stroke-width="4" stroke-linecap="round" stroke-linejoin="round"/>
    <circle cx="65" cy="115" r="6" fill="#D1FAE5" stroke="#34D399" stroke-width="2"/>
    <circle cx="115" cy="85" r="6" fill="#CFFAFE" stroke="#22D3EE" stroke-width="2"/>
    <circle cx="165" cy="55" r="6" fill="#DBEAFE" stroke="#60A5FA" stroke-width="2"/>
  </g>
  <rect x="30" y="40" width="160" height="160" rx="16" fill="url(#overlayGradient)" transform="skewY(-5)" pointer-events="none"/>
</svg>
